<svg width="180" height="180" viewBox="0 0 180 180" fill="none" xmlns="http://www.w3.org/2000/svg">
<rect width="180" height="180" rx="5" fill="#1D1D1F"/>
<path d="M89.0459 164.278C83.8671 164.278 79.4984 162.538 75.9372 159.06C72.3772 155.581 70.5966 151.178 70.5966 145.852C70.5966 140.416 72.3498 136.014 75.8569 132.644C79.3627 129.274 83.7595 127.588 89.0459 127.588C94.4406 127.588 98.8641 129.274 102.317 132.644C105.77 136.014 107.496 140.416 107.496 145.852C107.496 151.178 105.742 155.581 102.236 159.06C98.7297 162.538 94.333 164.278 89.0459 164.278Z" fill="#FEFEFE"/>
<path d="M89.0459 15.7893H89.0453C77.7171 15.7893 67.5761 18.5068 58.6214 23.9424C22.459 45.8944 19.0653 98.2865 53.335 125.802L68.1123 108.957C59.264 101.565 56.6784 90.745 56.6784 80.1998C56.6784 74.0033 58.0273 68.4862 60.7256 63.6487C63.4226 58.8112 67.2252 55.0606 72.1346 52.3971C77.0434 49.7335 82.68 48.4027 89.0453 48.4027H89.0459C95.4118 48.4027 101.048 49.7335 105.957 52.3971C110.867 55.0606 114.669 58.8112 117.366 63.6487C120.064 68.4862 121.413 74.0033 121.413 80.1998C121.413 90.745 118.827 101.565 109.98 108.957L124.756 125.802C159.027 98.2865 155.632 45.8944 119.47 23.9424C110.516 18.5068 100.374 15.7893 89.0459 15.7893Z" fill="#FFCD1A"/>
</svg>
